 <svg  version="1.0" xmlns="http://www.w3.org/2000/svg"  width="300.000000pt" height="300.000000pt" viewBox="0 0 300.000000 300.000000"  preserveAspectRatio="xMidYMid meet">  <g transform="translate(0.000000,300.000000) scale(0.100000,-0.100000)" fill="#ffffff" stroke="none"> <path d="M1300 2764 c-141 -38 -292 -141 -373 -256 -60 -84 -78 -124 -121 -253 -32 -95 -44 -118 -87 -165 -28 -30 -60 -73 -71 -94 -21 -40 -21 -43 -2 -191 5 -36 1 -45 -41 -94 -54 -64 -85 -120 -85 -157 0 -14 11 -48 25 -76 40 -80 35 -107 -33 -176 -88 -87 -90 -137 -10 -218 57 -60 51 -75 -41 -101 -13 -3 -12 -6 0 -19 19 -18 69 -9 98 18 36 32 27 71 -29 133 -27 30 -50 60 -50 66 0 21 30 65 71 104 48 45 73 96 63 128 -3 12 -17 45 -31 74 -32 69 -25 106 35 175 25 29 53 72 64 94 16 38 17 45 3 84 -31 88 -17 134 65 225 60 66 72 89 99 190 58 212 196 365 406 450 62 25 83 28 175 28 58 0 114 -2 125 -4 35 -7 22 25 -15 38 -48 16 -174 15 -240 -3z"/> <path d="M1610 2730 c0 -17 7 -20 48 -20 105 -1 261 -82 334 -174 53 -67 75 -112 94 -193 18 -79 37 -113 94 -168 74 -71 83 -108 53 -215 -15 -55 -15 -62 1 -104 12 -30 34 -59 67 -87 85 -71 99 -130 53 -220 -16 -30 -27 -66 -27 -90 0 -35 8 -47 67 -108 37 -39 66 -78 66 -90 0 -11 -16 -46 -35 -78 -56 -93 -44 -146 40 -179 33 -12 49 -14 57 -6 14 14 3 29 -29 37 -69 17 -80 64 -33 134 24 34 30 55 30 95 0 49 -2 52 -59 106 -32 30 -62 65 -66 78 -5 16 3 43 26 90 55 115 46 153 -70 268 -46 46 -51 56 -51 94 0 24 5 69 11 99 17 83 2 125 -75 210 -55 60 -66 77 -76 128 -26 126 -109 250 -217 325 -62 42 -193 88 -253 88 -43 0 -50 -3 -50 -20z"/> <path d="M1572 2613 c3 -30 23 -41 31 -18 9 21 -2 45 -20 45 -10 0 -13 -9 -11 -27z"/> <path d="M1407 2589 c-133 -32 -207 -115 -213 -239 -1 -36 -7 -76 -12 -90 -5 -14 -43 -56 -84 -92 -79 -70 -77 -68 -117 -215 -10 -36 -16 -43 -37 -43 -32 0 -64 -52 -64 -105 1 -22 11 -69 23 -105 18 -53 29 -70 59 -89 28 -18 41 -36 54 -75 20 -61 52 -125 93 -186 56 -82 34 -198 -47 -256 -71 -51 -85 -95 -60 -189 11 -39 10 -49 -5 -74 -22 -37 -21 -41 2 -41 45 0 62 67 39 155 -7 24 -9 47 -5 51 4 4 27 -12 52 -35 26 -24 79 -58 118 -77 259 -123 592 -65 751 129 45 55 42 73 -16 105 -62 33 -82 66 -83 132 0 49 5 63 47 129 27 41 58 106 70 144 18 54 29 72 51 84 67 34 110 229 63 282 -11 12 -28 21 -38 21 -25 0 -38 38 -38 115 0 93 -36 157 -119 212 -78 51 -88 65 -100 141 -18 113 -58 164 -129 166 -38 1 -55 -20 -25 -30 83 -27 97 -45 109 -135 11 -86 35 -120 135 -187 58 -39 80 -84 90 -187 4 -44 12 -95 18 -113 23 -75 -29 -328 -91 -444 -41 -78 -140 -171 -225 -211 -64 -30 -75 -32 -178 -32 -103 0 -114 2 -177 32 -125 59 -215 165 -264 310 -34 99 -68 310 -55 338 11 23 36 105 46 149 8 38 32 68 95 118 65 52 93 106 91 175 -5 155 142 259 297 208 17 -6 22 -3 22 9 0 35 -79 60 -143 45z m-447 -721 c1 -19 21 -171 26 -195 10 -48 -13 -42 -36 10 -36 81 -36 187 0 187 6 0 10 -1 10 -2z m1106 -24 c9 -36 -2 -108 -25 -160 -21 -46 -48 -62 -37 -21 3 12 8 58 12 102 3 44 7 86 10 93 6 22 33 13 40 -14z m-713 -663 c34 -11 81 -23 104 -26 79 -12 232 32 307 90 l44 33 4 -49 c6 -57 44 -112 94 -136 19 -9 34 -22 34 -29 0 -22 -109 -112 -173 -143 -101 -50 -176 -64 -302 -58 -150 6 -267 49 -360 130 l-49 44 44 39 c51 46 79 103 80 161 l0 42 56 -39 c31 -21 84 -48 117 -59z"/> <path d="M1323 2346 c-30 -26 -25 -48 7 -28 27 16 45 15 65 -5 14 -14 16 -30 10 -109 l-7 -94 56 -57 c53 -54 56 -60 56 -106 0 -56 19 -61 34 -9 13 46 -1 83 -50 128 -57 54 -64 75 -47 143 20 75 6 122 -41 145 -44 21 -50 20 -83 -8z"/> <path d="M1197 2056 c-44 -16 -77 -43 -77 -63 0 -18 14 -16 52 7 24 14 51 20 95 20 34 0 64 4 67 8 20 33 -73 52 -137 28z"/> <path d="M1681 2058 c-40 -22 -29 -33 36 -35 44 -1 74 -8 103 -24 42 -24 62 -20 44 9 -29 45 -137 75 -183 50z"/> <path d="M1224 1885 c-8 -34 1 -55 26 -55 28 0 48 43 30 65 -20 24 -49 18 -56 -10z"/> <path d="M1714 1896 c-3 -8 -4 -25 -2 -38 2 -17 9 -23 28 -23 22 0 25 4 25 35 0 29 -4 36 -23 38 -13 2 -24 -3 -28 -12z"/> <path d="M1424 1733 c-43 -67 -6 -126 75 -121 38 2 46 6 46 23 0 17 -6 19 -41 17 -57 -4 -72 15 -45 59 32 52 -1 73 -35 22z"/> <path d="M1347 1524 c-13 -13 16 -46 56 -65 74 -33 186 -20 239 28 14 12 15 19 7 29 -9 11 -17 10 -43 -9 -26 -18 -44 -22 -108 -22 -63 0 -81 4 -107 23 -33 24 -35 25 -44 16z"/> <path d="M2155 1360 c-4 -6 5 -24 18 -40 37 -44 41 -78 18 -148 -28 -81 -27 -99 10 -157 34 -53 37 -69 25 -127 -7 -32 -6 -38 8 -38 22 0 49 65 42 100 -2 15 -19 50 -37 79 -31 50 -32 54 -20 94 27 92 30 113 21 151 -4 21 -21 51 -36 67 -30 31 -39 35 -49 19z"/> <path d="M717 1308 c-58 -76 -74 -153 -42 -208 39 -68 5 -126 -102 -169 -118 -48 -204 -124 -256 -226 -47 -94 -126 -390 -108 -408 18 -18 28 2 60 131 66 265 130 370 270 445 74 40 91 43 91 15 0 -29 35 -88 53 -88 25 0 26 12 4 51 l-22 39 34 64 c37 70 41 108 17 155 -28 54 -19 105 34 188 11 17 12 25 3 34 -8 8 -18 2 -36 -23z"/> <path d="M820 1178 c0 -7 7 -22 15 -32 26 -34 18 -99 -20 -172 -19 -36 -35 -75 -35 -87 0 -29 36 -87 53 -87 24 0 25 10 3 50 l-21 39 43 83 c23 46 42 91 42 101 0 38 -42 117 -61 117 -11 0 -19 -6 -19 -12z"/> <path d="M2015 1170 c-3 -5 1 -20 9 -32 20 -28 20 -64 1 -118 -22 -63 -19 -114 8 -146 16 -19 29 -25 41 -21 16 6 16 9 -3 36 -25 35 -26 62 -5 125 19 55 14 118 -12 147 -19 21 -30 24 -39 9z"/> <path d="M2315 1030 c-4 -6 1 -22 10 -37 10 -15 15 -36 12 -52 -12 -56 -12 -64 1 -68 18 -7 44 63 37 97 -7 34 -50 77 -60 60z"/> <path d="M2127 983 c-4 -6 -2 -25 3 -42 5 -20 5 -42 -1 -57 -12 -33 -12 -34 10 -34 22 0 31 19 31 65 0 35 -32 86 -43 68z"/> <path d="M2400 945 c0 -8 24 -26 54 -40 158 -74 233 -203 290 -494 21 -108 38 -143 52 -107 8 21 -32 222 -63 316 -54 162 -126 254 -248 311 -68 33 -85 35 -85 14z"/> <path d="M898 848 c-3 -35 -3 -65 -1 -68 9 -10 38 18 41 40 6 36 -8 90 -22 90 -9 0 -15 -19 -18 -62z"/> <path d="M2492 638 c-6 -18 -22 -96 -37 -173 -33 -173 -36 -181 -46 -125 -5 25 -11 60 -14 78 -6 32 -35 46 -35 16 0 -59 25 -207 36 -211 24 -9 52 31 68 97 24 94 65 333 60 342 -10 16 -23 7 -32 -24z"/> <path d="M504 645 c-4 -9 5 -66 19 -128 15 -62 34 -145 43 -184 8 -40 20 -73 25 -73 5 0 9 -9 9 -21 0 -14 5 -19 18 -17 13 2 20 24 34 103 24 148 26 180 8 180 -11 0 -19 -24 -31 -95 -9 -52 -19 -88 -22 -80 -3 8 -15 60 -27 115 -38 181 -61 240 -76 200z"/> </g> </svg> 